<svg xmlns="http://www.w3.org/2000/svg" xmlns:xlink="http://www.w3.org/1999/xlink">
  <defs>
    <!-- email icon -->
    <symbol id="email" viewBox="0 0 512 512">
      <path d="M64 112c-8.8 0-16 7.2-16 16v22.1L220.5 291.7c20.7 17 50.4 17 71.1 0L464 150.1V128c0-8.8-7.2-16-16-16H64zM48 212.2V384c0 8.8 7.2 16 16 16H448c8.8 0 16-7.2 16-16V212.2L322 328.8c-38.4 31.5-93.7 31.5-132 0L48 212.2zM0 128C0 92.7 28.7 64 64 64H448c35.3 0 64 28.7 64 64V384c0 35.3-28.7 64-64 64H64c-35.3 0-64-28.7-64-64V128z" fill="currentColor"/>
    </symbol>

    <!-- pronounspage icon -->
    <symbol id="pronounspage" viewBox="0 0 650 650">
      <path fill="#C71585" d="M396.52 174.35c1.35-2.4.21-4.35-2.54-4.35l-48.2.03c-2.75 0-6.15 1.94-7.54 4.31l-118.1 199.77c-16.48 27.15-39.48 33.15-61.58 30.47-37.94-4.6-58.34-32.45-58.34-69.54 0-37.25 30.31-67.56 67.56-67.56h75c2.75 0 6.12-1.95 7.48-4.34l27.03-47.2c1.37-2.39.23-4.34-2.52-4.34h-107c-68.06 0-123.44 55.37-123.44 123.44 0 32.89 12.85 68.36 36.22 91.54 23.03 22.84 53.8 31.21 86.64 31.89 18.54.21 69.46-.21 93.33-42.68 26.73-47.57 136-241.44 136-241.44zM571.94 244.44c-23.03-22.84-53.8-31.21-86.64-31.89-18.54-.21-69.46.21-93.33 42.68-26.72 47.55-136 241.42-136 241.42-1.35 2.4-.21 4.35 2.54 4.35l48.2-.03c2.75 0 6.15-1.94 7.54-4.31l118.1-199.77c16.48-27.15 39.48-33.15 61.58-30.47 37.94 4.6 58.34 32.45 58.34 69.54 0 37.25-30.31 67.56-67.56 67.56h-75c-2.75 0-6.12 1.95-7.48 4.34l-27.03 47.2c-1.37 2.39-.23 4.34 2.52 4.34h107c68.06 0 123.44-55.37 123.44-123.44 0-32.87-12.85-68.34-36.22-91.52z"/>
    </symbol>

    <!-- github icon -->
    <symbol id="github" viewBox="0 0 98 96">
      <path fill-rule="evenodd" clip-rule="evenodd" d="M48.854 0C21.839 0 0 22 0 49.217c0 21.756 13.993 40.172 33.405 46.69 2.427.49 3.316-1.059 3.316-2.362 0-1.141-.08-5.052-.08-9.127-13.59 2.934-16.42-5.867-16.42-5.867-2.184-5.704-5.42-7.17-5.42-7.17-4.448-3.015.324-3.015.324-3.015 4.934.326 7.523 5.052 7.523 5.052 4.367 7.496 11.404 5.378 14.235 4.074.404-3.178 1.699-5.378 3.074-6.6-10.839-1.141-22.243-5.378-22.243-24.283 0-5.378 1.94-9.778 5.014-13.2-.485-1.222-2.184-6.275.486-13.038 0 0 4.125-1.304 13.426 5.052a46.97 46.97 0 0 1 12.214-1.63c4.125 0 8.33.571 12.213 1.63 9.302-6.356 13.427-5.052 13.427-5.052 2.67 6.763.97 11.816.485 13.038 3.155 3.422 5.015 7.822 5.015 13.2 0 18.905-11.404 23.06-22.324 24.283 1.78 1.548 3.316 4.481 3.316 9.126 0 6.6-.08 11.897-.08 13.526 0 1.304.89 2.853 3.316 2.364 19.412-6.52 33.405-24.935 33.405-46.691C97.707 22 75.788 0 48.854 0z" fill="currentColor"/>
    </symbol>

    <!-- gitlab old icon -->
    <symbol id="gitlab-old" viewBox="0 0 16 16">
      <g fill="none">
        <path fill="#FC6D26" d="M14.975 8.904L14.19 6.55l-1.552-4.67a.268.268 0 00-.255-.18.268.268 0 00-.254.18l-1.552 4.667H5.422L3.87 1.879a.267.267 0 00-.254-.179.267.267 0 00-.254.18l-1.55 4.667-.784 2.357a.515.515 0 00.193.583l6.78 4.812 6.778-4.812a.516.516 0 00.196-.583z"/>
        <path fill="#E24329" d="M8 14.296l2.578-7.75H5.423L8 14.296z"/>
        <path fill="#FC6D26" d="M8 14.296l-2.579-7.75H1.813L8 14.296z"/>
        <path fill="#FCA326" d="M1.81 6.549l-.784 2.354a.515.515 0 00.193.583L8 14.3 1.81 6.55z"/>
        <path fill="#E24329" d="M1.812 6.549h3.612L3.87 1.882a.268.268 0 00-.254-.18.268.268 0 00-.255.18L1.812 6.549z"/>
        <path fill="#FC6D26" d="M8 14.296l2.578-7.75h3.614L8 14.296z"/>
        <path fill="#FCA326" d="M14.19 6.549l.783 2.354a.514.514 0 01-.193.583L8 14.296l6.188-7.747h.001z"/>
        <path fill="#E24329" d="M14.19 6.549H10.58l1.551-4.667a.267.267 0 01.255-.18c.115 0 .217.073.254.18l1.552 4.667z"/>
      </g>
    </symbol>

    <!-- gitlab icon -->
    <symbol id="gitlab" viewBox="-.1 .5 960.2 923.9">
      <g>
        <path d="m958.9 442.4c1.1 26.1-2 52.1-9.2 77.2-7.1 25.1-18.3 48.8-33.1 70.3a240.43 240.43 0 0 1 -53.6 56.2l-.5.4-199.9 149.8-98.3 74.5-59.9 45.2c-3.5 2.7-7.4 4.7-11.5 6.1s-8.5 2.1-12.9 2.1c-4.3 0-8.7-.7-12.8-2.1s-8-3.4-11.5-6.1l-59.9-45.2-98.3-74.5-198.7-148.9-1.2-.8-.4-.4c-20.9-15.7-39-34.7-53.8-56.2s-26-45.3-33.2-70.4c-7.2-25.1-10.3-51.2-9.2-77.3 1.2-26.1 6.5-51.8 15.8-76.2l1.3-3.5 130.7-340.5q1-2.5 2.4-4.8 1.3-2.3 3.1-4.3 1.7-2.1 3.7-3.9 2-1.7 4.2-3.2c3.1-1.9 6.3-3.3 9.8-4.1 3.4-.9 7-1.3 10.5-1.1 3.6.2 7.1.9 10.4 2.2 3.3 1.2 6.5 3 9.3 5.2q2 1.7 3.9 3.6 1.8 2 3.2 4.3 1.5 2.2 2.6 4.7 1.1 2.4 1.8 5l88.1 269.7h356.6l88.1-269.7q.7-2.6 1.9-5 1.1-2.4 2.6-4.7 1.4-2.2 3.2-4.2 1.8-2 3.9-3.7c2.8-2.2 5.9-3.9 9.2-5.2 3.4-1.2 6.9-1.9 10.4-2.1 3.6-.2 7.1.1 10.6 1 3.4.9 6.7 2.3 9.7 4.2q2.3 1.4 4.3 3.2 2 1.7 3.7 3.8 1.7 2.1 3.1 4.4 1.3 2.3 2.3 4.8l130.5 340.6 1.3 3.5c9.3 24.3 14.6 50 15.7 76.1z" fill="#e24329"/>
        <path d="m959 442.5c1.1 26-2 52.1-9.2 77.2s-18.4 48.9-33.2 70.4-32.9 40.5-53.7 56.2l-.5.4-199.9 149.8s-84.9-64.1-182.5-138l286.5-216.8c12.9-9.7 26.4-18.6 40.3-26.8 13.9-8.3 28.3-15.7 43-22.3 14.8-6.6 29.9-12.5 45.2-17.4 15.4-5 31-9.1 46.9-12.4l1.3 3.5c9.3 24.4 14.6 50.1 15.8 76.2z" fill="#fc6d26"/>
        <path d="m480 658.5c97.6 73.7 182.6 138 182.6 138l-98.3 74.5-59.9 45.2c-3.5 2.7-7.4 4.7-11.5 6.1s-8.5 2.1-12.9 2.1c-4.3 0-8.7-.7-12.8-2.1s-8-3.4-11.5-6.1l-59.9-45.2-98.3-74.5s84.9-64.3 182.5-138z" fill="#fca326"/>
        <path d="m480 658.3c-97.7 73.9-182.5 138-182.5 138l-198.7-148.9-1.2-.8-.4-.4c-20.9-15.7-39-34.7-53.8-56.2s-26-45.3-33.2-70.4c-7.2-25.1-10.3-51.2-9.2-77.3 1.2-26.1 6.5-51.8 15.8-76.2l1.3-3.5c15.9 3.3 31.5 7.4 46.9 12.4 15.3 5 30.4 10.8 45.2 17.5 14.7 6.6 29.1 14.1 43 22.3s27.3 17.2 40.3 26.9z" fill="#fc6d26"/>
      </g>
    </symbol>

    <!-- gdev icon -->
    <symbol id="gdev" viewBox="0 -65.5 256 256">
      <path d="M184.31481,67.7044587 C197.78381,59.9684587 211.21681,52.1694587 224.73181,44.5134587 C237.55981,37.2454587 252.65281,43.9484587 255.56081,58.0924587 C257.24381,66.2744587 253.59081,75.1134587 246.20381,79.4184587 C221.98581,93.5314587 197.73281,107.588459 173.35881,121.430459 C165.81481,125.714459 158.04381,124.926459 151.16881,119.676459 C144.18481,114.346459 141.98381,106.994459 143.62181,98.4374587 C145.49181,91.9234587 149.77181,87.5684587 155.60881,84.3104587 C165.25981,78.9244587 174.75381,73.2544587 184.31481,67.7044587" fill="#FABC05"></path>
      <path d="M194.20341,62.0789587 C180.76841,54.2829587 167.29941,46.5479587 153.91141,38.6729587 C141.20241,31.1969587 139.46241,14.7749587 150.25641,5.18295871 C156.50041,-0.364041286 165.98141,-1.62104129 173.40341,2.62395871 C197.73541,16.5409587 222.03541,30.5169587 246.20941,44.7039587 C253.69141,49.0949587 256.89341,56.2199587 255.78641,64.7989587 C254.66141,73.5109587 249.39541,79.0929587 241.16641,81.9539587 C234.58941,83.5919587 228.67841,82.0619587 222.93841,78.6359587 C213.44741,72.9709587 203.79041,67.5829587 194.20341,62.0789587" fill="#109D58"></path>
      <path d="M71.7518102,56.5628587 C63.1308102,61.4608587 54.5048102,66.3498587 45.8928102,71.2628587 C40.8548102,74.1368587 35.8728102,77.1088587 30.8088102,79.9348587 C20.6058102,85.6298587 8.48381017,82.2918587 2.69881017,72.2608587 C-2.82218983,62.6888587 0.35081017,50.2788587 10.1768102,44.5428587 C34.2018102,30.5198587 58.2888102,16.5988587 82.4628102,2.83385871 C89.8768102,-1.38814129 97.5688102,-0.857141286 104.42481,4.18985871 C111.66081,9.51685871 114.02981,17.0128587 112.40481,25.8008587 C111.39681,27.9268587 110.79481,30.4198587 109.28581,32.0948587 C106.83081,34.8198587 104.04081,37.4288587 100.93481,39.3448587 C91.3228102,45.2718587 81.4958102,50.8498587 71.7518102,56.5628587" fill="#E94436"></path>
      <path d="M61.8670102,62.0569587 C70.4200102,67.0729587 78.9670102,72.0999587 87.5280102,77.1019587 C92.5350102,80.0279587 97.6000102,82.8569587 102.57901,85.8279587 C112.61301,91.8179587 115.78401,103.983959 109.98901,114.008959 C104.45901,123.576959 92.1260102,127.034959 82.2450102,121.391959 C58.0880102,107.596959 33.9890102,93.6989587 9.98101017,79.6459587 C2.61801017,75.3359587 -0.76798983,68.4089587 0.17501017,59.9479587 C1.17001017,51.0169587 6.47701017,45.2179587 14.9000102,42.2309587 C17.2450102,42.0419587 19.7050102,41.3159587 21.9110102,41.7859587 C25.4980102,42.5499587 29.1530102,43.6609587 32.3650102,45.3929587 C42.3040102,50.7529587 52.0480102,56.4749587 61.8670102,62.0569587" fill="#4385F3"></path>
    </symbol>

    <!-- discord icon -->
    <symbol id="discord" viewBox="0 0 127.14 96.36">
      <path fill="#5865f2" d="M107.7,8.07A105.15,105.15,0,0,0,81.47,0a72.06,72.06,0,0,0-3.36,6.83A97.68,97.68,0,0,0,49,6.83,72.37,72.37,0,0,0,45.64,0,105.89,105.89,0,0,0,19.39,8.09C2.79,32.65-1.71,56.6.54,80.21h0A105.73,105.73,0,0,0,32.71,96.36,77.7,77.7,0,0,0,39.6,85.25a68.42,68.42,0,0,1-10.85-5.18c.91-.66,1.8-1.34,2.66-2a75.57,75.57,0,0,0,64.32,0c.87.71,1.76,1.39,2.66,2a68.68,68.68,0,0,1-10.87,5.19,77,77,0,0,0,6.89,11.1A105.25,105.25,0,0,0,126.6,80.22h0C129.24,52.84,122.09,29.11,107.7,8.07ZM42.45,65.69C36.18,65.69,31,60,31,53s5-12.74,11.43-12.74S54,46,53.89,53,48.84,65.69,42.45,65.69Zm42.24,0C78.41,65.69,73.25,60,73.25,53s5-12.74,11.44-12.74S96.23,46,96.12,53,91.08,65.69,84.69,65.69Z"/>
    </symbol>

    <!-- telegram icon -->
    <symbol id="telegram" viewBox="0 0 240.1 240.1">
      <linearGradient id="Oval1" gradientUnits="userSpaceOnUse" x1="-838.041" y1="660.581" x2="-838.041" y2="660.3427" gradientTransform="matrix(1000 0 0 -1000 838161 660581)">
        <stop offset="0" style="stop-color:#2AABEE"/>
        <stop offset="1" style="stop-color:#229ED9"/>
      </linearGradient>
      <g id="Artboard" fill-rule="evenodd" clip-rule="evenodd">
        <circle fill="#24A1DE" cx="120.1" cy="120.1" r="120.1"/>
        <path fill="#FFFFFF" d="M54.3,118.8c35-15.2,58.3-25.3,70-30.2 c33.3-13.9,40.3-16.3,44.8-16.4c1,0,3.2,0.2,4.7,1.4c1.2,1,1.5,2.3,1.7,3.3s0.4,3.1,0.2,4.7c-1.8,19-9.6,65.1-13.6,86.3 c-1.7,9-5,12-8.2,12.3c-7,0.6-12.3-4.6-19-9c-10.6-6.9-16.5-11.2-26.8-18c-11.9-7.8-4.2-12.1,2.6-19.1c1.8-1.8,32.5-29.8,33.1-32.3 c0.1-0.3,0.1-1.5-0.6-2.1c-0.7-0.6-1.7-0.4-2.5-0.2c-1.1,0.2-17.9,11.4-50.6,33.5c-4.8,3.3-9.1,4.9-13,4.8 c-4.3-0.1-12.5-2.4-18.7-4.4c-7.5-2.4-13.5-3.7-13-7.9C45.7,123.3,48.7,121.1,54.3,118.8z"/>
      </g>
    </symbol>

    <!-- twitter icon -->
    <symbol id="twitter-x" viewBox="0 0 512 512">
      <path fill="currentColor" d="M389.2 48h70.6L305.6 224.2 487 464H345L233.7 318.6 106.5 464H35.8L200.7 275.5 26.8 48H172.4L272.9 180.9 389.2 48zM364.4 421.8h39.1L151.1 88h-42L364.4 421.8z"/>
    </symbol>

    <!-- twitter icon -->
    <symbol id="twitter" xml:space="preserve" viewBox="0 0 248 204">
      <path fill="#1d9bf0" d="M221.95 51.29c.15 2.17.15 4.34.15 6.53 0 66.73-50.8 143.69-143.69 143.69v-.04c-27.44.04-54.31-7.82-77.41-22.64 3.99.48 8 .72 12.02.73 22.74.02 44.83-7.61 62.72-21.66-21.61-.41-40.56-14.5-47.18-35.07 7.57 1.46 15.37 1.16 22.8-.87-23.56-4.76-40.51-25.46-40.51-49.5v-.64c7.02 3.91 14.88 6.08 22.92 6.32C11.58 63.31 4.74 33.79 18.14 10.71c25.64 31.55 63.47 50.73 104.08 52.76-4.07-17.54 1.49-35.92 14.61-48.25 20.34-19.12 52.33-18.14 71.45 2.19 11.31-2.23 22.15-6.38 32.07-12.26-3.77 11.69-11.66 21.62-22.2 27.93 10.01-1.18 19.79-3.86 29-7.95-6.78 10.16-15.32 19.01-25.2 26.16z"/>
    </symbol>

    <!-- instagram icon -->
    <symbol id="instagram" viewBox="0 0 32 32">
      <path d="M23 10.5C23 11.3284 22.3284 12 21.5 12C20.6716 12 20 11.3284 20 10.5C20 9.67157 20.6716 9 21.5 9C22.3284 9 23 9.67157 23 10.5Z" fill="white"/>
      <path fill-rule="evenodd" clip-rule="evenodd" d="M16 21C18.7614 21 21 18.7614 21 16C21 13.2386 18.7614 11 16 11C13.2386 11 11 13.2386 11 16C11 18.7614 13.2386 21 16 21ZM16 19C17.6569 19 19 17.6569 19 16C19 14.3431 17.6569 13 16 13C14.3431 13 13 14.3431 13 16C13 17.6569 14.3431 19 16 19Z" fill="white"/>
      <path fill-rule="evenodd" clip-rule="evenodd" d="M6 15.6C6 12.2397 6 10.5595 6.65396 9.27606C7.2292 8.14708 8.14708 7.2292 9.27606 6.65396C10.5595 6 12.2397 6 15.6 6H16.4C19.7603 6 21.4405 6 22.7239 6.65396C23.8529 7.2292 24.7708 8.14708 25.346 9.27606C26 10.5595 26 12.2397 26 15.6V16.4C26 19.7603 26 21.4405 25.346 22.7239C24.7708 23.8529 23.8529 24.7708 22.7239 25.346C21.4405 26 19.7603 26 16.4 26H15.6C12.2397 26 10.5595 26 9.27606 25.346C8.14708 24.7708 7.2292 23.8529 6.65396 22.7239C6 21.4405 6 19.7603 6 16.4V15.6ZM15.6 8H16.4C18.1132 8 19.2777 8.00156 20.1779 8.0751C21.0548 8.14674 21.5032 8.27659 21.816 8.43597C22.5686 8.81947 23.1805 9.43139 23.564 10.184C23.7234 10.4968 23.8533 10.9452 23.9249 11.8221C23.9984 12.7223 24 13.8868 24 15.6V16.4C24 18.1132 23.9984 19.2777 23.9249 20.1779C23.8533 21.0548 23.7234 21.5032 23.564 21.816C23.1805 22.5686 22.5686 23.1805 21.816 23.564C21.5032 23.7234 21.0548 23.8533 20.1779 23.9249C19.2777 23.9984 18.1132 24 16.4 24H15.6C13.8868 24 12.7223 23.9984 11.8221 23.9249C10.9452 23.8533 10.4968 23.7234 10.184 23.564C9.43139 23.1805 8.81947 22.5686 8.43597 21.816C8.27659 21.5032 8.14674 21.0548 8.0751 20.1779C8.00156 19.2777 8 18.1132 8 16.4V15.6C8 13.8868 8.00156 12.7223 8.0751 11.8221C8.14674 10.9452 8.27659 10.4968 8.43597 10.184C8.81947 9.43139 9.43139 8.81947 10.184 8.43597C10.4968 8.27659 10.9452 8.14674 11.8221 8.0751C12.7223 8.00156 13.8868 8 15.6 8Z" fill="white"/>
    </symbol>

    <!-- mastodon icon -->
    <symbol id="mastodon" viewBox="0 0 75 79">
      <path d="M73.8393 17.4898C72.6973 9.00165 65.2994 2.31235 56.5296 1.01614C55.05 0.797115 49.4441 0 36.4582 0H36.3612C23.3717 0 20.585 0.797115 19.1054 1.01614C10.5798 2.27644 2.79399 8.28712 0.904997 16.8758C-0.00358524 21.1056 -0.100549 25.7949 0.0682394 30.0965C0.308852 36.2651 0.355538 42.423 0.91577 48.5665C1.30307 52.6474 1.97872 56.6957 2.93763 60.6812C4.73325 68.042 12.0019 74.1676 19.1233 76.6666C26.7478 79.2728 34.9474 79.7055 42.8039 77.9162C43.6682 77.7151 44.5217 77.4817 45.3645 77.216C47.275 76.6092 49.5123 75.9305 51.1571 74.7385C51.1797 74.7217 51.1982 74.7001 51.2112 74.6753C51.2243 74.6504 51.2316 74.6229 51.2325 74.5948V68.6416C51.2321 68.6154 51.2259 68.5896 51.2142 68.5661C51.2025 68.5426 51.1858 68.522 51.1651 68.5058C51.1444 68.4896 51.1204 68.4783 51.0948 68.4726C51.0692 68.4669 51.0426 68.467 51.0171 68.4729C45.9835 69.675 40.8254 70.2777 35.6502 70.2682C26.7439 70.2682 24.3486 66.042 23.6626 64.2826C23.1113 62.762 22.7612 61.1759 22.6212 59.5646C22.6197 59.5375 22.6247 59.5105 22.6357 59.4857C22.6466 59.4609 22.6633 59.4391 22.6843 59.422C22.7053 59.4048 22.73 59.3929 22.7565 59.3871C22.783 59.3813 22.8104 59.3818 22.8367 59.3886C27.7864 60.5826 32.8604 61.1853 37.9522 61.1839C39.1768 61.1839 40.3978 61.1839 41.6224 61.1516C46.7435 61.008 52.1411 60.7459 57.1796 59.7621C57.3053 59.7369 57.431 59.7154 57.5387 59.6831C65.4861 58.157 73.0493 53.3672 73.8178 41.2381C73.8465 40.7606 73.9184 36.2364 73.9184 35.7409C73.9219 34.0569 74.4606 23.7949 73.8393 17.4898Z" fill="url(#paint0_linear_549_34)"/>
      <path d="M61.2484 27.0263V48.114H52.8916V27.6475C52.8916 23.3388 51.096 21.1413 47.4437 21.1413C43.4287 21.1413 41.4177 23.7409 41.4177 28.8755V40.0782H33.1111V28.8755C33.1111 23.7409 31.0965 21.1413 27.0815 21.1413C23.4507 21.1413 21.6371 23.3388 21.6371 27.6475V48.114H13.2839V27.0263C13.2839 22.7176 14.384 19.2946 16.5843 16.7572C18.8539 14.2258 21.8311 12.926 25.5264 12.926C29.8036 12.926 33.0357 14.5705 35.1905 17.8559L37.2698 21.346L39.3527 17.8559C41.5074 14.5705 44.7395 12.926 49.0095 12.926C52.7013 12.926 55.6784 14.2258 57.9553 16.7572C60.1531 19.2922 61.2508 22.7152 61.2484 27.0263Z" fill="white"/>
      <linearGradient id="paint0_linear_549_34" x1="37.0692" y1="0" x2="37.0692" y2="79" gradientUnits="userSpaceOnUse">
          <stop stop-color="#6364FF"/>
          <stop offset="1" stop-color="#563ACC"/>
      </linearGradient>
    </symbol>

    <!-- reddit icon -->
    <symbol id="reddit" viewBox="0 0 256 256">
      <style>
        .cls-1 {fill: #fff;}
        .cls-1, .cls-2 {stroke-width: 0px;}
        .cls-2 {fill: #ff4500;}
      </style>
      <path class="cls-2" d="m128,0h0C57.31,0,0,57.31,0,128h0c0,35.35,14.33,67.35,37.49,90.51l-24.38,24.38c-4.84,4.84-1.41,13.11,5.43,13.11h109.46s0,0,0,0c70.69,0,128-57.31,128-128h0C256,57.31,198.69,0,128,0Z"/>
      <path class="cls-1" d="m154.04,60.36c2.22,9.41,10.67,16.42,20.76,16.42,11.78,0,21.33-9.55,21.33-21.33s-9.55-21.33-21.33-21.33c-10.3,0-18.89,7.3-20.89,17.01-17.25,1.85-30.72,16.48-30.72,34.21,0,.04,0,.07,0,.11-18.76.79-35.89,6.13-49.49,14.56-5.05-3.91-11.39-6.24-18.27-6.24-16.51,0-29.89,13.38-29.89,29.89,0,11.98,7.04,22.3,17.21,27.07.99,34.7,38.8,62.61,85.31,62.61s84.37-27.94,85.31-62.67c10.09-4.8,17.07-15.09,17.07-27,0-16.51-13.38-29.89-29.89-29.89-6.85,0-13.16,2.31-18.2,6.19-13.72-8.49-31.04-13.83-49.99-14.54,0-.03,0-.05,0-.08,0-12.7,9.44-23.24,21.68-24.97Zm-81.54,82.27c.5-10.84,7.7-19.16,16.07-19.16s14.77,8.79,14.27,19.63c-.5,10.84-6.75,14.78-15.13,14.78s-15.71-4.41-15.21-15.25Zm95.06-19.16c8.38,0,15.58,8.32,16.07,19.16.5,10.84-6.84,15.25-15.21,15.25s-14.63-3.93-15.13-14.78c-.5-10.84,5.89-19.63,14.27-19.63Zm-9.96,44.24c1.57.16,2.57,1.79,1.96,3.25-5.15,12.31-17.31,20.96-31.5,20.96s-26.34-8.65-31.5-20.96c-.61-1.46.39-3.09,1.96-3.25,9.2-.93,19.15-1.44,29.54-1.44s20.33.51,29.54,1.44Z"/>
    </symbol>

    <!-- messenger icon -->
    <symbol id="messenger" viewBox="0 0 800 800">
      <radialGradient id="a" cx="101.9" cy="809" r="1.1" gradientTransform="matrix(800 0 0 -800 -81386 648000)" gradientUnits="userSpaceOnUse">
        <stop offset="0" style="stop-color:#09f"/>
        <stop offset=".6" style="stop-color:#a033ff"/>
        <stop offset=".9" style="stop-color:#ff5280"/>
        <stop offset="1" style="stop-color:#ff7061"/>
      </radialGradient>
      <path fill="url(#a)" d="M400 0C174.7 0 0 165.1 0 388c0 116.6 47.8 217.4 125.6 287 6.5 5.8 10.5 14 10.7 22.8l2.2 71.2a32 32 0 0 0 44.9 28.3l79.4-35c6.7-3 14.3-3.5 21.4-1.6 36.5 10 75.3 15.4 115.8 15.4 225.3 0 400-165.1 400-388S625.3 0 400 0z"/>
      <path fill="#FFF" d="m159.8 501.5 117.5-186.4a60 60 0 0 1 86.8-16l93.5 70.1a24 24 0 0 0 28.9-.1l126.2-95.8c16.8-12.8 38.8 7.4 27.6 25.3L522.7 484.9a60 60 0 0 1-86.8 16l-93.5-70.1a24 24 0 0 0-28.9.1l-126.2 95.8c-16.8 12.8-38.8-7.3-27.5-25.2z"/>
    </symbol>

    <!-- zalo icon -->
    <symbol id="zalo" viewBox="0 0 50 50">
      <path fill-rule="evenodd" clip-rule="evenodd" d="M22.782 0.166016H27.199C33.2653 0.166016 36.8103 1.05701 39.9572 2.74421C43.1041 4.4314 45.5875 6.89585 47.2557 10.0428C48.9429 13.1897 49.8339 16.7347 49.8339 22.801V27.1991C49.8339 33.2654 48.9429 36.8104 47.2557 39.9573C45.5685 43.1042 43.1041 45.5877 39.9572 47.2559C36.8103 48.9431 33.2653 49.8341 27.199 49.8341H22.8009C16.7346 49.8341 13.1896 48.9431 10.0427 47.2559C6.89583 45.5687 4.41243 43.1042 2.7442 39.9573C1.057 36.8104 0.166016 33.2654 0.166016 27.1991V22.801C0.166016 16.7347 1.057 13.1897 2.7442 10.0428C4.43139 6.89585 6.89583 4.41245 10.0427 2.74421C13.1707 1.05701 16.7346 0.166016 22.782 0.166016Z" fill="#0068FF"/>
      <path opacity="0.12" fill-rule="evenodd" clip-rule="evenodd" d="M49.8336 26.4736V27.1994C49.8336 33.2657 48.9427 36.8107 47.2555 39.9576C45.5683 43.1045 43.1038 45.5879 39.9569 47.2562C36.81 48.9434 33.265 49.8344 27.1987 49.8344H22.8007C17.8369 49.8344 14.5612 49.2378 11.8104 48.0966L7.27539 43.4267L49.8336 26.4736Z" fill="#001A33"/>
      <path fill-rule="evenodd" clip-rule="evenodd" d="M7.779 43.5892C10.1019 43.846 13.0061 43.1836 15.0682 42.1825C24.0225 47.1318 38.0197 46.8954 46.4923 41.4732C46.8209 40.9803 47.1279 40.4677 47.4128 39.9363C49.1062 36.7779 50.0004 33.22 50.0004 27.1316V22.7175C50.0004 16.629 49.1062 13.0711 47.4128 9.91273C45.7385 6.75436 43.2461 4.28093 40.0877 2.58758C36.9293 0.894239 33.3714 0 27.283 0H22.8499C17.6644 0 14.2982 0.652754 11.4699 1.89893C11.3153 2.03737 11.1636 2.17818 11.0151 2.32135C2.71734 10.3203 2.08658 27.6593 9.12279 37.0782C9.13064 37.0921 9.13933 37.1061 9.14889 37.1203C10.2334 38.7185 9.18694 41.5154 7.55068 43.1516C7.28431 43.399 7.37944 43.5512 7.779 43.5892Z" fill="white"/>
      <path d="M20.5632 17H10.8382V19.0853H17.5869L10.9329 27.3317C10.7244 27.635 10.5728 27.9194 10.5728 28.5639V29.0947H19.748C20.203 29.0947 20.5822 28.7156 20.5822 28.2606V27.1421H13.4922L19.748 19.2938C19.8428 19.1801 20.0134 18.9716 20.0893 18.8768L20.1272 18.8199C20.4874 18.2891 20.5632 17.8341 20.5632 17.2844V17Z" fill="#0068FF"/>
      <path d="M32.9416 29.0947H34.3255V17H32.2402V28.3933C32.2402 28.7725 32.5435 29.0947 32.9416 29.0947Z" fill="#0068FF"/>
      <path d="M25.814 19.6924C23.1979 19.6924 21.0747 21.8156 21.0747 24.4317C21.0747 27.0478 23.1979 29.171 25.814 29.171C28.4301 29.171 30.5533 27.0478 30.5533 24.4317C30.5723 21.8156 28.4491 19.6924 25.814 19.6924ZM25.814 27.2184C24.2785 27.2184 23.0273 25.9672 23.0273 24.4317C23.0273 22.8962 24.2785 21.645 25.814 21.645C27.3495 21.645 28.6007 22.8962 28.6007 24.4317C28.6007 25.9672 27.3685 27.2184 25.814 27.2184Z" fill="#0068FF"/>
      <path d="M40.4867 19.6162C37.8516 19.6162 35.7095 21.7584 35.7095 24.3934C35.7095 27.0285 37.8516 29.1707 40.4867 29.1707C43.1217 29.1707 45.2639 27.0285 45.2639 24.3934C45.2639 21.7584 43.1217 19.6162 40.4867 19.6162ZM40.4867 27.2181C38.9322 27.2181 37.681 25.9669 37.681 24.4124C37.681 22.8579 38.9322 21.6067 40.4867 21.6067C42.0412 21.6067 43.2924 22.8579 43.2924 24.4124C43.2924 25.9669 42.0412 27.2181 40.4867 27.2181Z" fill="#0068FF"/>
      <path d="M29.4562 29.0944H30.5747V19.957H28.6221V28.2793C28.6221 28.7153 29.0012 29.0944 29.4562 29.0944Z" fill="#0068FF"/>
    </symbol>

    <!-- vk icon -->
    <symbol id="vk" viewBox="0 0 48 48">
      <path d="M0 23.04C0 12.1788 0 6.74826 3.37413 3.37413C6.74826 0 12.1788 0 23.04 0H24.96C35.8212 0 41.2517 0 44.6259 3.37413C48 6.74826 48 12.1788 48 23.04V24.96C48 35.8212 48 41.2517 44.6259 44.6259C41.2517 48 35.8212 48 24.96 48H23.04C12.1788 48 6.74826 48 3.37413 44.6259C0 41.2517 0 35.8212 0 24.96V23.04Z" fill="#0077FF"/>
      <path d="M25.54 34.5801C14.6 34.5801 8.3601 27.0801 8.1001 14.6001H13.5801C13.7601 23.7601 17.8 27.6401 21 28.4401V14.6001H26.1602V22.5001C29.3202 22.1601 32.6398 18.5601 33.7598 14.6001H38.9199C38.0599 19.4801 34.4599 23.0801 31.8999 24.5601C34.4599 25.7601 38.5601 28.9001 40.1201 34.5801H34.4399C33.2199 30.7801 30.1802 27.8401 26.1602 27.4401V34.5801H25.54Z" fill="white"/>
    </symbol>

    <!-- xiaohongshu icon -->
    <symbol id="xiaohongshu" viewBox="0 0 40 40">
      <path fill="#6366f1" d="M37.2,27.4c-1.8,0-2-0.1-2.4-2c0.2,0,0.3,0,0.5-0.1c0.6-0.1,1.8-0.1,1.8-0.4c0.2-1,0.1-2,0.1-3 c0-0.2-0.5-0.4-0.8-0.5c-1.4,0-2.8,0-4.4,0c0,1.5,0,2.8,0,4.2c0,1.9,0.2,1.7-1.7,1.7c-0.2,0-0.5,0-0.8,0c0-2,0-3.9,0-6 c-1,0-1.8,0-2.8,0c0-0.9,0-1.7,0-2.6c0.9,0,1.7,0,2.5,0c0.5-2.2,0.3-2.5-1.6-2.8c0-0.3,0-0.6,0-0.9c0-0.5,0-1,0-1.5 c0.6,0,1.2-0.1,1.7-0.1c0.1-0.3,0.1-0.6,0.2-0.9c0.8,0,1.6,0,2.4,0c0,0.9,0.5,1,1.3,1c2.3,0,3.4,1.1,3.4,3.4c0,0.6,0,1.1,0,1.8 c1.9,0,3.1,0.9,3.4,2.8c0,1.2,0,2.4,0,3.6C39.5,26.6,38.8,27.4,37.2,27.4z M32,16.4c0,0.8,0,1.6,0,2.5c0.7,0,1.3,0,1.9,0 C34.5,16.4,34.1,15.9,32,16.4z M37.4,16.1c0-0.3-0.2-0.7,0-1c0.2-0.5,0.5-1.2,1-1.4c0.6-0.3,1.2,0.2,1.5,0.8c0,0.1,0.1,0.1,0.2,0.2 c0,0.1,0,0.1,0,0.2C39.5,16.1,38.6,16.3,37.4,16.1z M24.9,27.5c-2.3,0-4.6,0-6.9,0c0.5-2.4,0.7-2.5,3.5-2.6c0-2.8,0-5.7,0-8.6 c-0.5,0-1-0.1-1.6-0.1c0-0.8,0-1.6,0-2.5c2,0,3.9,0,6,0c0,0.8,0,1.6,0,2.5c-0.5,0-1,0.1-1.6,0.1c0,2.9,0,5.7,0,8.7 c0.9,0,1.7,0,2.5,0c0.1,0.2,0.1,0.2,0.1,0.3C27.1,27.5,27.1,27.5,24.9,27.5z M18.6,21.6c0,0.1,0,0.1,0,0.2c-0.3,0.6-0.5,1.5-1,1.6 c-1,0.2-2.1,0.1-3.1,0c-0.7-0.1-0.7-0.7-0.5-1.3c0.3-0.7,0.6-1.4,0.9-2.1c0.1-0.3,0.2-0.7,0.3-1C15.2,19,15.2,19,15.2,19 c-2.3-0.3-2.4-0.5-1.4-2.6c0.4-0.8,0.9-1.6,1.1-2.5c0.3-1.1,1-1.5,2.1-1.3c0.3,0,0.5,0,1,0c-0.4,1-0.8,1.8-1.1,2.6 c-0.5,1.2-0.4,1.3,0.8,1.3c0.4,0,0.8,0,1.4,0c-0.5,1.1-0.9,2.1-1.3,3.1C16.9,21.3,16.9,21.3,18.6,21.6z M15.7,24.9 c0.6,0,1.2,0,1.9,0c-0.3,0.8-0.6,1.5-1,2.1c-0.1,0.2-0.4,0.4-0.7,0.4c-1.2,0-2.3,0-3.6,0C13.3,24.9,13.3,24.9,15.7,24.9z M9.2,16.5 c0.9,0,1.7,0,2.5,0c0.2,1.9,0.2,3.7,0.5,5.6c0.2,1.5-0.6,2.5-1.2,3.9C9.2,22.9,9.7,19.7,9.2,16.5z M7.5,24.7c0,1.9-0.7,2.6-2.5,2.8 c-0.7,0.1-1.1-0.1-1.3-0.8c-0.1-0.4-0.3-0.8-0.5-1.3c1.7-0.1,1.7-0.1,1.7-1.8C5,20.3,5,17,5,13.7c0-1.2,0.6-1,1.4-1 c0.8,0,1.2,0,1.2,1C7.5,17.4,7.6,21,7.5,24.7z M0,23.3c0-0.1,0-0.3,0-0.4c0.2-1,0.4-2,0.5-3c0.1-1.1,0.2-2.1,0.2-3.3 c0.9,0,1.7,0,2.6,0c-0.4,3.1,0,6.4-1.8,9.4C0.9,25,0.5,24.1,0,23.3z"/>
    </symbol>

    <!-- signal icon -->
    <symbol id="signal" fill="none" viewBox="0 0 160 160">
      <g fill="#3a76f0">
        <path d="m80 0c4.1505 0 8.2271.31607 12.2072.925452l-1.1444 7.413248c-3.6069-.55226-7.3014-.8387-11.0628-.8387-3.7612 0-7.4555.28641-11.0623.83862l-1.1444-7.413245c3.9799-.609332 8.0564-.925375 12.2067-.925375z"/>
        <path d="m98.9849 2.26619-1.7798 7.28755c7.3099 1.77896 14.1849 4.66606 20.4389 8.47306l3.895-6.411c-6.901-4.20091-14.488-7.38658-22.5541-9.34961z"/>
        <path d="m127.279 15.4591-4.432 6.0507c5.977 4.3861 11.257 9.6664 15.643 15.6437l6.051-4.4324c-4.84-6.5957-10.666-12.4222-17.262-17.262z"/>
        <path d="m148.384 38.4618-6.411 3.8942c3.807 6.2541 6.694 13.1299 8.473 20.4395l7.288-1.7798c-1.963-8.0657-5.149-15.6528-9.35-22.5539z"/>
        <path d="m159.075 67.7934-7.414 1.1444c.553 3.6067.839 7.301.839 11.0622 0 3.7614-.286 7.4559-.839 11.0628l7.414 1.1444c.609-3.9801.925-8.0567.925-12.2072 0-4.1503-.316-8.2267-.925-12.2066z"/>
        <path d="m141.973 117.645c3.807-6.255 6.694-13.13 8.473-20.44l7.288 1.7798c-1.963 8.0662-5.149 15.6532-9.35 22.5542z"/>
        <path d="m138.49 122.847 6.051 4.432c-4.84 6.596-10.666 12.422-17.262 17.262l-4.433-6.051c5.978-4.386 11.258-9.666 15.644-15.643z"/>
        <path d="m117.644 141.973 3.894 6.411c-6.901 4.201-14.488 7.387-22.5537 9.35l-1.7798-7.288c7.3095-1.779 14.1855-4.666 20.4395-8.473z"/>
        <path d="m91.0622 151.661 1.1445 7.414c-3.9799.609-8.0564.925-12.2067.925-4.1505 0-8.2272-.316-12.2073-.925l1.1442-7.413c3.6054.552 7.2997.838 11.0631.838 3.7612 0 7.4555-.286 11.0622-.839z"/>
        <path d="m62.7945 150.448-1.7794 7.286c-6.0589-1.475-11.8477-3.639-17.2785-6.406l-7.5927 1.772-1.7042-7.304 10.2604-2.394 2.4408 1.243c4.9187 2.506 10.1623 4.467 15.6536 5.803z"/>
        <path d="m28.1097 147.273 1.7042 7.304-13.0145 3.036c-8.66079 2.021-16.433718-5.752-14.41286-14.412l3.03673-13.015 7.30383 1.704-3.03675 13.015c-.75782 3.248 2.15705 6.162 5.40485 5.405z"/>
        <path d="m14.2041 125.56-7.30383-1.704 1.77163-7.593c-2.76664-5.431-4.93123-11.22-6.40585-17.2787l7.28586-1.7794c1.33599 5.4911 3.29709 10.7351 5.80279 15.6541l1.2435 2.441z"/>
        <path d="m8.33759 91.0624-7.412228 1.1442c-.609324-3.9799-.925362-8.0563-.925362-12.2066 0-4.1505.316067-8.2271.925446-12.2072l7.413244 1.1444c-.55225 3.607-.83869 7.3014-.83869 11.0628 0 3.7631.28613 7.4572.83759 11.0624z"/>
        <path d="m9.55373 62.795-7.28755-1.7798c1.96302-8.0657 5.1487-15.6528 9.34962-22.5539l6.411 3.8942c-3.807 6.2541-6.6941 13.1299-8.47307 20.4395z"/>
        <path d="m21.5098 37.1531-6.0507-4.4324c4.8398-6.5957 10.6663-12.4221 17.262-17.2619l4.4324 6.0507c-5.9773 4.3861-11.2576 9.6663-15.6437 15.6436z"/>
        <path d="m42.356 18.0266-3.8943-6.4111c6.9011-4.20082 14.4882-7.38645 22.554-9.34944l1.7798 7.28755c-7.3096 1.77899-14.1854 4.66589-20.4395 8.47299z"/>
        <path d="m145 80c0 35.899-29.101 65-65 65-11.3866 0-22.0893-2.928-31.3965-8.072-.8961-.495-1.9417-.658-2.9389-.426l-28.9134 6.747 6.7465-28.914c.2326-.997.0692-2.043-.426-2.939-5.1439-9.307-8.0717-20.0095-8.0717-31.396 0-35.8985 29.1015-65 65-65 35.899 0 65 29.1015 65 65z"/>
      </g>
    </symbol>

    <!-- bluesky icon -->
    <symbol id="bluesky" viewBox="0 0 600 530">
      <path d="m135.72 44.03c66.496 49.921 138.02 151.14 164.28 205.46 26.262-54.316 97.782-155.54 164.28-205.46 47.98-36.021 125.72-63.892 125.72 24.795 0 17.712-10.155 148.79-16.111 170.07-20.703 73.984-96.144 92.854-163.25 81.433 117.3 19.964 147.14 86.092 82.697 152.22-122.39 125.59-175.91-31.511-189.63-71.766-2.514-7.3797-3.6904-10.832-3.7077-7.8964-0.0174-2.9357-1.1937 0.51669-3.7077 7.8964-13.714 40.255-67.233 197.36-189.63 71.766-64.444-66.128-34.605-132.26 82.697-152.22-67.108 11.421-142.55-7.4491-163.25-81.433-5.9562-21.282-16.111-152.36-16.111-170.07 0-88.687 77.742-60.816 125.72-24.795z" fill="#1185fe"/>
    </symbol>

    <!-- IndieWeb icon -->
    <symbol id="indieweb" viewBox="0 0 250.527 118.421" enable-background="new 0 0 250.527 118.421" xml:space="preserve">
      <path d="M17.912,91.228h3.708v10.205h-3.708V91.228z"/>
      <path d="M29.787,91.228h3.56l3.329,5.657h0.108c-0.148-0.853-0.312-1.732-0.312-2.599v-3.059h3.547v10.205h-3.547l-3.262-5.359   h-0.108c0.122,0.703,0.23,1.367,0.23,2.043v3.316h-3.546V91.228z"/>
      <path d="M48.175,91.228h3.776c3.424,0,6.05,1.502,6.05,5.252c0,3.031-2.139,4.953-5.13,4.953h-4.696V91.228z M51.883,98.375h0.23   c1.231,0,2.179-0.568,2.179-1.908c0-1.436-0.825-2.044-2.179-2.044h-0.23V98.375z"/>
      <path d="M65.873,91.228h3.708v10.205h-3.708V91.228z"/>
      <path d="M77.748,91.228h6.862v2.788h-3.127v0.975h2.855v2.653h-2.855v1.001h3.234v2.788h-6.97V91.228z"/>
      <path d="M107.86,91.228l1.286,6.091h0.081c0.067-0.623,0.149-1.272,0.312-1.882l1.083-4.209h2.842l1.395,6.091h0.081   c0.054-0.596,0.122-1.218,0.257-1.8l1.028-4.291h3.857l-3.6,10.205h-3.235l-1.164-5.549h-0.121   c-0.041,0.527-0.068,1.042-0.189,1.543l-1.029,4.006h-3.153l-3.573-10.205H107.86z"/>
      <path d="M127.347,91.228h6.862v2.788h-3.127v0.975h2.855v2.653h-2.855v1.001h3.234v2.788h-6.97V91.228z"/>
      <path d="M142.323,91.228h4.317c1.976,0,3.992,0.474,3.992,2.828c0,0.895-0.446,1.773-1.34,2.059v0.08   c1.11,0.393,1.813,1.205,1.813,2.423c0,2.099-1.948,2.815-3.735,2.815h-5.048V91.228z M146.098,95.153   c0.542,0,1.15-0.054,1.15-0.758c0-0.758-0.689-0.704-1.231-0.704h-0.257v1.462H146.098z M145.76,98.998h0.419   c0.609,0,1.489-0.014,1.489-0.854c0-0.853-0.947-0.839-1.543-0.839h-0.365V98.998z"/>
      <path d="M178.513,95.37c-0.596-0.555-1.34-1.028-2.18-1.028c-1.109,0-2.017,0.879-2.017,1.989c0,1.124,0.961,1.989,2.071,1.989   c0.853,0,1.529-0.365,2.125-0.947l-0.108,3.816c-0.596,0.285-1.977,0.406-2.64,0.406c-2.91,0-5.184-2.26-5.184-5.17   c0-2.978,2.342-5.359,5.333-5.359c0.839,0,1.705,0.148,2.49,0.42L178.513,95.37z"/>
      <path d="M189.334,101.433h-3.925l3.546-10.205h4.101l3.642,10.205h-3.926l-0.338-1.272h-2.802L189.334,101.433z M191.785,97.738   l-0.434-1.8c-0.108-0.433-0.176-0.88-0.243-1.313h-0.136l-0.677,3.113H191.785z"/>
      <path d="M205.204,91.228h3.817l1.407,5.359h0.095c0.068-0.446,0.136-0.92,0.258-1.354l1.15-4.006h3.775l1.679,10.205h-3.587   l-0.501-5.59h-0.067c-0.067,0.338-0.136,0.69-0.243,1.016l-1.476,4.574h-2.166l-1.326-4.317c-0.108-0.433-0.203-0.839-0.229-1.272   h-0.122c-0.027,0.406-0.055,0.826-0.095,1.232l-0.434,4.357h-3.586L205.204,91.228z"/>
      <path d="M225.136,91.228h4.696c2.383,0,4.142,1.219,4.142,3.749c0,2.085-1.299,3.384-3.37,3.384h-1.895v3.072h-3.573V91.228z    M228.709,95.789h0.365c0.65,0,1.354-0.107,1.354-0.934c0-0.799-0.758-0.839-1.367-0.839h-0.352V95.789z"/>
      <linearGradient id="SVGID_1_" gradientUnits="userSpaceOnUse" x1="23.2632" y1="47.7271" x2="229.2631" y2="47.7271">
        <stop offset="0" style="stop-color:#FBB03B"/>
        <stop offset="0.0088" style="stop-color:#FBAE3A"/>
        <stop offset="0.1552" style="stop-color:#F78931"/>
        <stop offset="0.2921" style="stop-color:#F36F2A"/>
        <stop offset="0.4147" style="stop-color:#F26025"/>
        <stop offset="0.511" style="stop-color:#F15A24"/>
        <stop offset="0.6495" style="stop-color:#F15724"/>
        <stop offset="0.7658" style="stop-color:#F04C24"/>
        <stop offset="0.8742" style="stop-color:#EF3B24"/>
        <stop offset="0.977" style="stop-color:#ED2324"/>
        <stop offset="1" style="stop-color:#ED1C24"/>
      </linearGradient>
      <rect x="17.263" y="17.395" fill="url(#SVGID_1_)" width="60.666" height="60.666"/>
      <linearGradient id="SVGID_2_" gradientUnits="userSpaceOnUse" x1="23.2632" y1="49.7954" x2="229.2634" y2="49.7954">
        <stop offset="0" style="stop-color:#FBB03B"/>
        <stop offset="0.0088" style="stop-color:#FBAE3A"/>
        <stop offset="0.1552" style="stop-color:#F78931"/>
        <stop offset="0.2921" style="stop-color:#F36F2A"/>
        <stop offset="0.4147" style="stop-color:#F26025"/>
        <stop offset="0.511" style="stop-color:#F15A24"/>
        <stop offset="0.6495" style="stop-color:#F15724"/>
        <stop offset="0.7658" style="stop-color:#F04C24"/>
        <stop offset="0.8742" style="stop-color:#EF3B24"/>
        <stop offset="0.977" style="stop-color:#ED2324"/>
        <stop offset="1" style="stop-color:#ED1C24"/>
      </linearGradient>
      <polygon fill="url(#SVGID_2_)" points="127.724,82.197 86.715,17.395 168.733,17.395 "/>
      <linearGradient id="SVGID_3_" gradientUnits="userSpaceOnUse" x1="23.2632" y1="47.9067" x2="229.2631" y2="47.9067">
        <stop offset="0" style="stop-color:#FBB03B"/>
        <stop offset="0.0088" style="stop-color:#FBAE3A"/>
        <stop offset="0.1552" style="stop-color:#F78931"/>
        <stop offset="0.2921" style="stop-color:#F36F2A"/>
        <stop offset="0.4147" style="stop-color:#F26025"/>
        <stop offset="0.511" style="stop-color:#F15A24"/>
        <stop offset="0.6495" style="stop-color:#F15724"/>
        <stop offset="0.7658" style="stop-color:#F04C24"/>
        <stop offset="0.8742" style="stop-color:#EF3B24"/>
        <stop offset="0.977" style="stop-color:#ED2324"/>
        <stop offset="1" style="stop-color:#ED1C24"/>
      </linearGradient>
      <circle fill="url(#SVGID_3_)" cx="203.111" cy="47.907" r="31.697"/>
        <circle fill="#FFFFFF" stroke="#FFFFFF" stroke-width="2" cx="220.263" cy="31.562" r="1.667"/>
      <path fill="none" stroke="#FFFFFF" stroke-width="2" d="M231.787,31.559h-13.03c-4.137,0-7.492,3.354-7.492,7.493  s3.355,7.492,7.492,7.492h18.686"/>
        <circle fill="#FFFFFF" stroke="#FFFFFF" stroke-width="2" cx="27.347" cy="31.562" r="1.667"/>
      <path fill="none" stroke="#FFFFFF" stroke-width="2" d="M15.824,31.559h13.03c4.137,0,7.492,3.354,7.492,7.493  s-3.355,7.492-7.492,7.492H10.168"/>
          <circle fill="#FFFFFF" stroke="#FFFFFF" stroke-width="2" cx="117.822" cy="27.71" r="1.667"/>
        <line fill="none" stroke="#FFFFFF" stroke-width="2" x1="117.822" y1="27.364" x2="117.822" y2="17.394"/>
      <circle fill="#FFFFFF" stroke="#FFFFFF" stroke-width="2" cx="138.453" cy="27.71" r="1.667"/>
        <line fill="none" stroke="#FFFFFF" stroke-width="2" x1="138.453" y1="27.364" x2="138.453" y2="17.394"/>
    </symbol>

    <!-- threads icon -->
    <symbol id="threads" viewBox="0 0 192 192">
      <path fill="currentColor" d="M141.537 88.9883C140.71 88.5919 139.87 88.2104 139.019 87.8451C137.537 60.5382 122.616 44.905 97.5619 44.745C97.4484 44.7443 97.3355 44.7443 97.222 44.7443C82.2364 44.7443 69.7731 51.1409 62.102 62.7807L75.881 72.2328C81.6116 63.5383 90.6052 61.6848 97.2286 61.6848C97.3051 61.6848 97.3819 61.6848 97.4576 61.6855C105.707 61.7381 111.932 64.1366 115.961 68.814C118.893 72.2193 120.854 76.925 121.825 82.8638C114.511 81.6207 106.601 81.2385 98.145 81.7233C74.3247 83.0954 59.0111 96.9879 60.0396 116.292C60.5615 126.084 65.4397 134.508 73.775 140.011C80.8224 144.663 89.899 146.938 99.3323 146.423C111.79 145.74 121.563 140.987 128.381 132.296C133.559 125.696 136.834 117.143 138.28 106.366C144.217 109.949 148.617 114.664 151.047 120.332C155.179 129.967 155.42 145.8 142.501 158.708C131.182 170.016 117.576 174.908 97.0135 175.059C74.2042 174.89 56.9538 167.575 45.7381 153.317C35.2355 139.966 29.8077 120.682 29.6052 96C29.8077 71.3178 35.2355 52.0336 45.7381 38.6827C56.9538 24.4249 74.2039 17.11 97.0132 16.9405C119.988 17.1113 137.539 24.4614 149.184 38.788C154.894 45.8136 159.199 54.6488 162.037 64.9503L178.184 60.6422C174.744 47.9622 169.331 37.0357 161.965 27.974C147.036 9.60668 125.202 0.195148 97.0695 0H96.9569C68.8816 0.19447 47.2921 9.6418 32.7883 28.0793C19.8819 44.4864 13.2244 67.3157 13.0007 95.9325L13 96L13.0007 96.0675C13.2244 124.684 19.8819 147.514 32.7883 163.921C47.2921 182.358 68.8816 191.806 96.9569 192H97.0695C122.03 191.827 139.624 185.292 154.118 170.811C173.081 151.866 172.51 128.119 166.26 113.541C161.776 103.087 153.227 94.5962 141.537 88.9883ZM98.4405 129.507C88.0005 130.095 77.1544 125.409 76.6196 115.372C76.2232 107.93 81.9158 99.626 99.0812 98.6368C101.047 98.5234 102.976 98.468 104.871 98.468C111.106 98.468 116.939 99.0737 122.242 100.233C120.264 124.935 108.662 128.946 98.4405 129.507Z"/>
    </symbol>

  </defs>
</svg>
