<svg xmlns="http://www.w3.org/2000/svg">
  <defs>
    <!-- paypal icon -->
      <symbol id="paypal" xmlns:xlink="http://www.w3.org/1999/xlink" viewBox="-23 0 302 302" preserveAspectRatio="xMidYMid">
        <g>
          <path d="M217.168476,23.5070146 C203.234077,7.62479651 178.045612,0.815753338 145.823355,0.815753338 L52.3030619,0.815753338 C45.7104431,0.815753338 40.1083819,5.6103852 39.0762042,12.1114399 L0.136468302,259.076601 C-0.637664968,263.946149 3.13311322,268.357876 8.06925331,268.357876 L65.804612,268.357876 L80.3050438,176.385849 L79.8555471,179.265958 C80.8877248,172.764903 86.4481659,167.970272 93.0324607,167.970272 L120.46841,167.970272 C174.366398,167.970272 216.569147,146.078116 228.897012,82.7490197 C229.263268,80.8761167 229.579581,79.0531577 229.854273,77.2718188 C228.297683,76.4477414 228.297683,76.4477414 229.854273,77.2718188 C233.525163,53.8646924 229.829301,37.9325302 217.168476,23.5070146" fill="#27346A"></path>
          <path d="M102.396976,68.8395929 C103.936919,68.1070797 105.651665,67.699203 107.449652,67.699203 L180.767565,67.699203 C189.449511,67.699203 197.548776,68.265236 204.948824,69.4555699 C207.071448,69.7968545 209.127479,70.1880831 211.125242,70.6375799 C213.123006,71.0787526 215.062501,71.5781934 216.943728,72.1275783 C217.884341,72.4022708 218.808307,72.6852872 219.715624,72.9849517 C223.353218,74.2002577 226.741092,75.61534 229.854273,77.2718188 C233.525163,53.8563683 229.829301,37.9325302 217.168476,23.5070146 C203.225753,7.62479651 178.045612,0.815753338 145.823355,0.815753338 L52.2947379,0.815753338 C45.7104431,0.815753338 40.1083819,5.6103852 39.0762042,12.1114399 L0.136468302,259.068277 C-0.637664968,263.946149 3.13311322,268.349552 8.0609293,268.349552 L65.804612,268.349552 L95.8875974,77.5798073 C96.5035744,73.6675208 99.0174265,70.4627756 102.396976,68.8395929 Z" fill="#27346A"></path>
          <path d="M228.897012,82.7490197 C216.569147,146.069792 174.366398,167.970272 120.46841,167.970272 L93.0241367,167.970272 C86.4398419,167.970272 80.8794007,172.764903 79.8555471,179.265958 L61.8174095,293.621258 C61.1431644,297.883153 64.4394738,301.745495 68.7513129,301.745495 L117.421821,301.745495 C123.182038,301.745495 128.084882,297.550192 128.983876,291.864891 L129.458344,289.384335 L138.631407,231.249423 L139.222412,228.036354 C140.121406,222.351053 145.02425,218.15575 150.784467,218.15575 L158.067979,218.15575 C205.215193,218.15575 242.132193,199.002194 252.920115,143.605884 C257.423406,120.456802 255.092683,101.128442 243.181019,87.5519756 C239.568397,83.4399129 235.081754,80.0437153 229.854273,77.2718188 C229.571257,79.0614817 229.263268,80.8761167 228.897012,82.7490197 L228.897012,82.7490197 Z" fill="#2790C3"></path>
          <path d="M216.952052,72.1275783 C215.070825,71.5781934 213.13133,71.0787526 211.133566,70.6375799 C209.135803,70.1964071 207.071448,69.8051785 204.957148,69.4638939 C197.548776,68.265236 189.457835,67.699203 180.767565,67.699203 L107.457976,67.699203 C105.651665,67.699203 103.936919,68.1070797 102.4053,68.8479169 C99.0174265,70.4710996 96.5118984,73.6675208 95.8959214,77.5881313 L80.3133678,176.385849 L79.8638711,179.265958 C80.8877248,172.764903 86.4481659,167.970272 93.0324607,167.970272 L120.476734,167.970272 C174.374722,167.970272 216.577471,146.078116 228.905336,82.7490197 C229.271592,80.8761167 229.579581,79.0614817 229.862597,77.2718188 C226.741092,75.623664 223.361542,74.2002577 219.723948,72.9932757 C218.816631,72.6936112 217.892665,72.4022708 216.952052,72.1275783" fill="#1F264F"></path>
      </g>
    </symbol>

    <!-- kofi icon -->
      <symbol id="kofi" viewBox="0 0 24 24">
        <path fill="currentColor" d="M23.881 8.948c-.773-4.085-4.859-4.593-4.859-4.593H.723c-.604 0-.679.798-.679.798s-.082 7.324-.022 11.822c.164 2.424 2.586 2.672 2.586 2.672s8.267-.023 11.966-.049c2.438-.426 2.683-2.566 2.658-3.734 4.352.24 7.422-2.831 6.649-6.916zm-11.062 3.511c-1.246 1.453-4.011 3.976-4.011 3.976s-.121.119-.31.023c-.076-.057-.108-.09-.108-.09-.443-.441-3.368-3.049-4.034-3.954-.709-.965-1.041-2.7-.091-3.71.951-1.01 3.005-1.086 4.363.407 0 0 1.565-1.782 3.468-.963 1.904.82 1.832 3.011.723 4.311zm6.173.478c-.928.116-1.682.028-1.682.028V7.284h1.77s1.971.551 1.971 2.638c0 1.913-.985 2.667-2.059 3.015z"/>
      </symbol>

    <!-- liberapay icon -->
      <symbol id="liberapay" viewBox="0 0 512 512">
        <rect width="512" height="512" rx="15%" fill="#f6c915"/>
        <path fill="#ffffff" d="M209 359c-17 0-30-2-39-7-10-4-16-10-20-17-4-8-6-16-6-26s1-20 4-31l44-185 54-8-48 201-2 11c0 4 0 7 2 9 1 3 4 5 7 7l14 3-10 43M404 243c0 17-3 33-9 47a103 103 0 0 1-59 60 117 117 0 0 1-68 7l-16 63h-51l57-241a305 305 0 0 1 71-11c13 0 24 2 34 6a63 63 0 0 1 36 40c3 9 5 19 5 29m-127 72l15 1c9 0 17-1 25-5 7-3 13-8 19-14 5-6 9-13 12-22 3-8 4-18 4-28s-2-18-6-25c-5-7-13-11-23-11l-21 2-25 102"/>
      </symbol>

    <!-- patreon icon -->
      <symbol id="patreon" xmlns:xlink="http://www.w3.org/1999/xlink" viewBox="0 0 1080 1080" style="enable-background:new 0 0 1080 1080;" xml:space="preserve">
        <path fill="currentColor" d="M1033.05,324.45c-0.19-137.9-107.59-250.92-233.6-291.7c-156.48-50.64-362.86-43.3-512.28,27.2 C106.07,145.41,49.18,332.61,47.06,519.31c-1.74,153.5,13.58,557.79,241.62,560.67c169.44,2.15,194.67-216.18,273.07-321.33 c55.78-74.81,127.6-95.94,216.01-117.82C929.71,603.22,1033.27,483.3,1033.05,324.45z"/>
      </symbol>

    <!-- github icon -->
    <symbol id="github" viewBox="0 0 98 96">
      <path fill-rule="evenodd" clip-rule="evenodd" d="M48.854 0C21.839 0 0 22 0 49.217c0 21.756 13.993 40.172 33.405 46.69 2.427.49 3.316-1.059 3.316-2.362 0-1.141-.08-5.052-.08-9.127-13.59 2.934-16.42-5.867-16.42-5.867-2.184-5.704-5.42-7.17-5.42-7.17-4.448-3.015.324-3.015.324-3.015 4.934.326 7.523 5.052 7.523 5.052 4.367 7.496 11.404 5.378 14.235 4.074.404-3.178 1.699-5.378 3.074-6.6-10.839-1.141-22.243-5.378-22.243-24.283 0-5.378 1.94-9.778 5.014-13.2-.485-1.222-2.184-6.275.486-13.038 0 0 4.125-1.304 13.426 5.052a46.97 46.97 0 0 1 12.214-1.63c4.125 0 8.33.571 12.213 1.63 9.302-6.356 13.427-5.052 13.427-5.052 2.67 6.763.97 11.816.485 13.038 3.155 3.422 5.015 7.822 5.015 13.2 0 18.905-11.404 23.06-22.324 24.283 1.78 1.548 3.316 4.481 3.316 9.126 0 6.6-.08 11.897-.08 13.526 0 1.304.89 2.853 3.316 2.364 19.412-6.52 33.405-24.935 33.405-46.691C97.707 22 75.788 0 48.854 0z" fill="currentColor"/>
    </symbol>

    <!-- wise icon -->
      <svg id="wise" fill="currentColor" viewBox="0 0 32 32" version="1.1">
        <path d="M13.34 30.996h3.886l12.678-29.992h-24.284l4.684 7.862-8.212 7.852h14.198l1.334-3.146h-7.834l4.738-4.728-2.764-4.696h12.918l-11.342 26.848z"></path>
      </svg>

    <!-- momo icon -->
      <symbol id="momo" xmlns:xlink="http://www.w3.org/1999/xlink" viewBox="0 0 296 296" style="enable-background:new 0 0 296 296;" xml:space="preserve">
        <style type="text/css">
          .st0{fill-rule:evenodd;clip-rule:evenodd;fill:#A50064;}
          .st1{fill:#FFFFFF;}
        </style>
        <path class="st0" d="M276,0H20C9,0,0,9,0,20v256c0,11,9,20,20,20h256c11,0,20-9,20-20V20C296,9,287,0,276,0z"/>
        <g>
          <path class="st1" d="M204.8,139c23.5,0,42.5-19,42.5-42.5c0-23.5-19-42.5-42.5-42.5c-23.5,0-42.5,19-42.5,42.5   C162.3,120,181.3,139,204.8,139z M204.8,78.4c10,0,18.1,8.1,18.1,18.1c0,10-8.1,18.1-18.1,18.1c-10,0-18.1-8.1-18.1-18.1   C186.7,86.5,194.8,78.4,204.8,78.4z"/>
          <path class="st1" d="M204.8,157.4c-23.5,0-42.5,19-42.5,42.5c0,23.5,19,42.5,42.5,42.5c23.5,0,42.5-19,42.5-42.5   C247.3,176.4,228.3,157.4,204.8,157.4z M204.8,218c-10,0-18.1-8.1-18.1-18.1c0-10,8.1-18.1,18.1-18.1c10,0,18.1,8.1,18.1,18.1   C222.9,209.9,214.8,218,204.8,218z"/>
          <path class="st1" d="M118.2,157.4c-7.2,0-13.8,2.4-19.1,6.4c-5.3-4-12-6.4-19.1-6.4c-17.6,0-31.9,14.3-31.9,31.9v53.2h24.4V189   c0-4,3.2-7.2,7.2-7.2c4,0,7.2,3.2,7.2,7.2v53.4h24.4V189c0-4,3.2-7.2,7.2-7.2c4,0,7.2,3.2,7.2,7.2v53.4H150v-53.2   C150,171.7,135.8,157.4,118.2,157.4z"/>
          <path class="st1" d="M118.2,54c-7.2,0-13.8,2.4-19.1,6.4c-5.3-4-12-6.4-19.1-6.4C62.3,54,48,68.3,48,85.9V139h24.4V85.6   c0-4,3.2-7.2,7.2-7.2c4,0,7.2,3.2,7.2,7.2V139h24.4V85.6c0-4,3.2-7.2,7.2-7.2c4,0,7.2,3.2,7.2,7.2V139H150V85.9   C150,68.3,135.8,54,118.2,54z"/>
        </g>
      </symbol>

    <!-- zalopay icon -->
     <symbol id="zalopay" xmlns:xlink="http://www.w3.org/1999/xlink" version="1.1" viewBox="0 0 1103 885" style="shape-rendering:geometricPrecision; text-rendering:geometricPrecision; image-rendering:optimizeQuality; fill-rule:evenodd; clip-rule:evenodd">
      <g><path style="opacity:0.991" fill="#0032c9" d="M -0.5,-0.5 C 87.8333,-0.5 176.167,-0.5 264.5,-0.5C 286.699,7.20024 296.199,22.8669 293,46.5C 291.885,50.7293 290.219,54.7293 288,58.5C 229.308,136.359 170.808,214.359 112.5,292.5C 173.163,293.5 233.83,293.833 294.5,293.5C 294.5,318.5 294.5,343.5 294.5,368.5C 206.499,368.667 118.499,368.5 30.5,368C 12.5499,363.222 2.21656,351.722 -0.5,333.5C -0.5,331.5 -0.5,329.5 -0.5,327.5C 0.487275,320.384 2.98728,313.717 7,307.5C 65.5,229.667 124,151.833 182.5,74C 121.501,73.5 60.5009,73.3333 -0.5,73.5C -0.5,48.8333 -0.5,24.1667 -0.5,-0.5 Z"/></g>
      <g><path style="opacity:0.99" fill="#0032c9" d="M 680.5,-0.5 C 705.5,-0.5 730.5,-0.5 755.5,-0.5C 755.5,97.5 755.5,195.5 755.5,293.5C 767.833,293.5 780.167,293.5 792.5,293.5C 792.5,318.5 792.5,343.5 792.5,368.5C 780.162,368.667 767.829,368.5 755.5,368C 711.046,359.879 686.212,333.379 681,288.5C 680.5,192.167 680.333,95.8339 680.5,-0.5 Z"/></g>
      <g><path style="opacity:0.987" fill="#0032c9" d="M 542.5,72.5 C 567.5,72.5 592.5,72.5 617.5,72.5C 617.5,146.167 617.5,219.833 617.5,293.5C 629.5,293.5 641.5,293.5 653.5,293.5C 653.5,318.5 653.5,343.5 653.5,368.5C 641.162,368.667 628.829,368.5 616.5,368C 591.324,364.249 571.324,352.083 556.5,331.5C 508.507,372.084 455.84,379.25 398.5,353C 353.283,326.437 327.783,286.937 322,234.5C 318.29,173.174 341.79,125.674 392.5,92C 424.852,73.5687 459.185,68.5687 495.5,77C 512.271,81.2204 527.604,88.3871 541.5,98.5C 542.498,89.8589 542.831,81.1922 542.5,72.5 Z M 465.5,147.5 C 511.845,150.345 537.512,174.845 542.5,221C 540.11,254.384 523.443,277.384 492.5,290C 454.901,299.438 425.734,287.938 405,255.5C 391.792,227.427 394.125,200.76 412,175.5C 426.251,159.126 444.084,149.793 465.5,147.5 Z"/></g>
      <g><path style="opacity:0.987" fill="#0032c9" d="M 1102.5,205.5 C 1102.5,215.5 1102.5,225.5 1102.5,235.5C 1093.53,296.649 1060.19,338.482 1002.5,361C 941.254,378.649 888.421,364.815 844,319.5C 805.735,272.576 797.068,220.576 818,163.5C 842.823,109.377 884.989,79.2105 944.5,73C 1008.46,71.2183 1055.96,98.0516 1087,153.5C 1094.94,170.14 1100.11,187.474 1102.5,205.5 Z M 947.5,147.5 C 983.119,146.658 1008.29,162.325 1023,194.5C 1034.34,233.171 1023.17,263.338 989.5,285C 953.903,300.881 923.069,294.381 897,265.5C 876.061,234.962 876.394,204.629 898,174.5C 911.396,159.557 927.896,150.557 947.5,147.5 Z"/></g>
      <g><path style="opacity:0.991" fill="#00cf69" d="M 73.5,884.5 C 48.8333,884.5 24.1667,884.5 -0.5,884.5C -0.5,792.5 -0.5,700.5 -0.5,608.5C 8.41784,554.422 37.4178,515.255 86.5,491C 147.215,467.451 201.882,477.118 250.5,520C 290.762,562.208 303.595,611.708 289,668.5C 270.773,722.727 233.94,756.894 178.5,771C 141.934,778.517 107.267,773.35 74.5,755.5C 73.5001,798.495 73.1667,841.495 73.5,884.5 Z M 136.5,553.5 C 173.226,551.102 199.393,566.435 215,599.5C 226.697,636.911 216.531,666.744 184.5,689C 149.521,706.623 118.354,701.456 91,673.5C 69.5336,644.758 68.2002,615.092 87,584.5C 99.6712,567.921 116.171,557.588 136.5,553.5 Z"/></g>
      <g><path style="opacity:0.988" fill="#00cf69" d="M 454.5,478.5 C 486.625,477.486 515.792,486.153 542,504.5C 542.5,495.84 542.666,487.173 542.5,478.5C 567.5,478.5 592.5,478.5 617.5,478.5C 617.5,552.167 617.5,625.833 617.5,699.5C 629.5,699.5 641.5,699.5 653.5,699.5C 653.5,724.5 653.5,749.5 653.5,774.5C 613.608,780.602 581.108,768.269 556,737.5C 513.586,774.115 465.752,783.282 412.5,765C 358.502,740.554 328.335,698.721 322,639.5C 318.64,577.048 343.14,529.214 395.5,496C 414.064,485.974 433.73,480.141 454.5,478.5 Z M 462.5,553.5 C 507.938,554.123 534.438,576.79 542,621.5C 541.23,664.602 519.73,690.435 477.5,699C 441.342,700.81 415.842,685.31 401,652.5C 390.061,614.579 400.895,584.745 433.5,563C 442.737,558.117 452.403,554.95 462.5,553.5 Z"/></g>
      <g><path style="opacity:0.987" fill="#00cf69" d="M 785.5,884.5 C 758.167,884.5 730.833,884.5 703.5,884.5C 721.212,842.072 739.212,799.739 757.5,757.5C 719.237,664.704 681.57,571.704 644.5,478.5C 671.5,478.5 698.5,478.5 725.5,478.5C 749.704,539.248 774.204,599.915 799,660.5C 824.833,600.167 850.667,539.833 876.5,479.5C 903.833,478.167 931.167,478.167 958.5,479.5C 900.539,614.416 842.873,749.416 785.5,884.5 Z"/></g>
      </symbol>
  </defs>
</svg>
